<?xml version="1.0" encoding="UTF-8"?>
<svg version="1.1" xmlns="http://www.w3.org/2000/svg" width="512" height="512">
<path d="M0 0 C3.42939467 -0.00433308 6.8574563 -0.04063749 10.28662109 -0.07861328 C34.10430785 -0.20000288 56.941978 3.50666952 79.72802734 10.37060547 C80.65115723 10.64855957 81.57428711 10.92651367 82.52539062 11.21289062 C104.83063149 18.10087346 126.4878982 28.09582669 145.72802734 41.37060547 C146.3392041 41.78938965 146.95038086 42.20817383 147.58007812 42.63964844 C158.01622781 49.83408104 167.89800865 57.56793782 177.25537109 66.12451172 C180.4865071 69.05958787 183.79543298 71.9023802 187.11083984 74.74169922 C188.72802734 76.37060547 188.72802734 76.37060547 188.72802734 78.37060547 C189.38802734 78.37060547 190.04802734 78.37060547 190.72802734 78.37060547 C192.10302734 79.69873047 192.10302734 79.69873047 193.72802734 81.62060547 C194.35322266 82.35923828 194.97841797 83.09787109 195.62255859 83.85888672 C196.31736328 84.68775391 197.01216797 85.51662109 197.72802734 86.37060547 C198.47439453 87.23041016 199.22076172 88.09021484 199.98974609 88.97607422 C235.47110734 130.3995636 260.58190056 185.97591585 260.96630859 241.05029297 C260.97438034 242.1758963 260.98245209 243.30149963 260.99076843 244.46121216 C261.00456271 246.84652187 261.01530555 249.23185094 261.02319336 251.6171875 C261.03459568 254.00396712 261.05485517 256.3907237 261.0847168 258.77734375 C261.39798138 283.89101289 258.06956596 307.36700519 250.72802734 331.37060547 C250.48246094 332.2080127 250.23689453 333.04541992 249.98388672 333.90820312 C243.51831683 355.85958058 233.82554546 377.56174525 220.72802734 396.37060547 C220.30924316 396.98033203 219.89045898 397.59005859 219.45898438 398.21826172 C212.23768238 408.69612209 204.46393446 418.59324151 195.88427734 427.99560547 C193.94241254 430.13447105 192.04825138 432.30479932 190.16552734 434.49560547 C183.32920765 442.3018378 175.83295979 448.90487284 167.72802734 455.37060547 C166.91333984 456.04091797 166.09865234 456.71123047 165.25927734 457.40185547 C131.02011384 485.41571652 90.08345372 502.54164591 46.72802734 510.37060547 C45.79063721 510.55606934 44.85324707 510.7415332 43.88745117 510.93261719 C32.51691938 512.90497558 21.05441154 512.74276279 9.54663086 512.74121094 C5.96141802 512.74554993 2.37747387 512.78186691 -1.20751953 512.81982422 C-47.52208383 513.04429929 -94.54113843 498.87575818 -133.27197266 473.37060547 C-133.92987793 472.93893066 -134.5877832 472.50725586 -135.265625 472.0625 C-146.91357965 464.36189257 -157.63343817 455.89592269 -167.94775391 446.47216797 C-169.97762281 444.6367571 -172.04906626 442.87679103 -174.14697266 441.12060547 C-197.06790414 421.05902559 -215.62121855 392.86533487 -228.27197266 365.37060547 C-228.60551758 364.6498584 -228.9390625 363.92911133 -229.28271484 363.18652344 C-238.98176657 342.02923628 -245.21442541 320.26867165 -249.27197266 297.37060547 C-249.45888672 296.41275146 -249.64580078 295.45489746 -249.83837891 294.46801758 C-251.77457382 283.25278141 -251.6441397 271.96678992 -251.64257812 260.61645508 C-251.6469164 257.10366009 -251.68323365 253.59216083 -251.72119141 250.07958984 C-251.99234524 195.67219077 -231.98241907 139.34093583 -197.27197266 97.37060547 C-196.42476156 96.32572679 -195.57824694 95.28028235 -194.73291016 94.23388672 C-187.36688251 85.22636603 -180.24063595 76.84449155 -171.27197266 69.37060547 C-170.52947266 68.62810547 -169.78697266 67.88560547 -169.02197266 67.12060547 C-161.64620437 59.74483718 -153.81058025 53.34763079 -145.27197266 47.37060547 C-143.94939453 46.42314453 -143.94939453 46.42314453 -142.60009766 45.45654297 C-138.53008996 42.55820415 -134.4700263 39.85990278 -130.11083984 37.40625 C-128.31648578 36.39567513 -126.53576728 35.36423491 -124.75634766 34.32763672 C-99.76274345 19.90348379 -73.56240884 10.13355443 -45.33447266 4.12060547 C-44.62693848 3.96962402 -43.9194043 3.81864258 -43.19042969 3.66308594 C-40.88975042 3.19599907 -38.58367716 2.77961673 -36.27197266 2.37060547 C-34.898396 2.10352783 -34.898396 2.10352783 -33.49707031 1.83105469 C-22.38569391 -0.07682167 -11.24510868 -0.00158181 0 0 Z " fill="#E01713" transform="translate(251.27197265625,-0.37060546875)"/>
<path d="M0 0 C17.16 0 34.32 0 52 0 C59.19161138 20.88991877 66.30264153 41.80001506 73.26431274 62.76727295 C75.78782565 70.36623718 78.31908841 77.96261199 80.8515625 85.55859375 C81.17435558 86.52679833 81.17435558 86.52679833 81.50366974 87.51456261 C82.6064761 90.82231852 83.70935064 94.1300517 84.81225586 97.43777466 C86.4909832 102.4725321 88.16925798 107.50744038 89.84745789 112.54237366 C90.66277568 114.98832703 91.47821556 117.43423971 92.29377747 119.88011169 C94.17864387 125.53321071 96.06255805 131.18661994 97.94232845 136.84141541 C102.64218545 150.97950852 107.37625506 165.10424816 112.2255249 179.19192505 C118.02990306 196.0651715 123.60864119 212.98933342 129 230 C114.15 230 99.3 230 84 230 C78.06 212.18 72.12 194.36 66 176 C36.63 175.67 7.26 175.34 -23 175 C-23.99 178.63 -24.98 182.26 -26 186 C-26.59338106 187.96364326 -27.20024989 189.92337292 -27.83203125 191.875 C-28.15300781 192.87152588 -28.47398437 193.86805176 -28.8046875 194.89477539 C-29.13726562 195.91949951 -29.46984375 196.94422363 -29.8125 198 C-30.51723851 200.18609755 -31.2216619 202.3722967 -31.92578125 204.55859375 C-32.27334473 205.63608887 -32.6209082 206.71358398 -32.97900391 207.82373047 C-35.35183964 215.20550784 -37.67067903 222.60440593 -40 230 C-51.88 230 -63.76 230 -76 230 C-74.01526039 223.3842013 -72.01413356 216.77761797 -69.97265625 210.1796875 C-68.87834441 206.6022986 -67.8321225 203.01230641 -66.80859375 199.4140625 C-66 197 -66 197 -64.58312988 193.8039093 C-63.02238628 190.18415931 -61.91977763 186.52393684 -60.86132812 182.72338867 C-57.36495619 170.50109055 -53.24924355 158.47976211 -49.21875 146.42578125 C-48.35970336 143.85085791 -47.50147845 141.27566086 -46.64318848 138.70048523 C-44.84652925 133.31143884 -43.04757318 127.92316375 -41.24707031 122.53540039 C-39.42791087 117.09176402 -37.61075008 111.64746666 -35.79589844 106.20239258 C-17.8653259 52.40597055 -17.8653259 52.40597055 -9.01794434 26.70759583 C-8.7788887 26.01293779 -8.53983307 25.31827976 -8.29353333 24.60257149 C-7.67525305 22.80742869 -7.05554332 21.01277839 -6.43566895 19.21818542 C-4.25896832 12.82275081 -2.13634289 6.40902868 0 0 Z " fill="#FEFDFD" transform="translate(183,140)"/>
<path d="M0 0 C13.86 0 27.72 0 42 0 C42 75.9 42 151.8 42 230 C28.14 230 14.28 230 0 230 C0 154.1 0 78.2 0 0 Z " fill="#FEFCFC" transform="translate(339,140)"/>
<path d="M0 0 C2.65134777 2.65134777 3.25502398 5.58635091 4.28662109 9.09228516 C4.73063045 10.55656942 5.17571043 12.02052939 5.62176514 13.48419189 C5.84966484 14.23591927 6.07756454 14.98764664 6.3123703 15.76215363 C7.3740703 19.21738759 8.49900588 22.65087783 9.63134766 26.08349609 C9.85453863 26.76166193 10.07772961 27.43982777 10.30768394 28.13854408 C10.77013527 29.54243334 11.23306785 30.94616414 11.69646072 32.34974289 C12.43818587 34.59650985 13.17830012 36.84380239 13.9180603 39.09121704 C15.75149782 44.66025442 17.58744264 50.22846434 19.42352295 55.79663086 C20.98683791 60.53786135 22.5490741 65.27944462 24.10987473 70.02150345 C24.83274225 72.21629491 25.5571587 74.41057091 26.28164673 76.60482788 C28.16050297 82.30362248 30.03223968 88.00537085 31.82177734 93.73291016 C32.05375824 94.47272125 32.28573914 95.21253235 32.52474976 95.97476196 C33 98 33 98 33 102 C11.22 102 -10.56 102 -33 102 C-29.86174699 87.87786144 -25.14299318 74.34435865 -20.40945435 60.69470215 C-16.11530622 48.29980364 -11.92922733 35.90907091 -8.2734375 23.30859375 C-6.85596373 18.43983051 -5.28538197 13.62465418 -3.6875 8.8125 C-3.43234619 8.0380957 -3.17719238 7.26369141 -2.91430664 6.46582031 C-1.12418729 1.12418729 -1.12418729 1.12418729 0 0 Z " fill="#E01A16" transform="translate(204,180)"/>
</svg>
